<?xml version="1.0" standalone="no"?>
<!DOCTYPE svg PUBLIC "-//W3C//DTD SVG 20010904//EN"
 "http://www.w3.org/TR/2001/REC-SVG-20010904/DTD/svg10.dtd">
<svg version="1.0" xmlns="http://www.w3.org/2000/svg"
 width="700.000000pt" height="700.000000pt" viewBox="0 0 700.000000 700.000000"
 preserveAspectRatio="xMidYMid meet">
<metadata>
Created by potrace 1.11, written by Peter Selinger 2001-2013
</metadata>
<g transform="translate(0.000000,700.000000) scale(0.100000,-0.100000)"
fill="#000000" stroke="none">
<path d="M3278 6996 c-1 -2 -39 -6 -83 -10 -89 -7 -144 -13 -225 -26 -30 -5
-75 -12 -100 -16 -47 -6 -49 -7 -90 -17 -14 -4 -65 -16 -115 -28 -387 -90
-823 -286 -1163 -524 -511 -357 -947 -880 -1187 -1425 -26 -58 -51 -114 -56
-125 -73 -159 -186 -560 -213 -760 -3 -17 -7 -46 -11 -66 -6 -40 -10 -75 -22
-199 -15 -162 -8 -592 12 -711 2 -13 6 -46 9 -74 9 -78 23 -156 51 -285 23
-107 88 -333 114 -395 5 -11 26 -65 46 -120 65 -172 213 -462 314 -615 271
-411 605 -747 1008 -1016 77 -52 145 -94 149 -94 4 0 15 -6 23 -14 29 -25 304
-161 431 -213 165 -67 424 -150 563 -179 92 -19 211 -41 272 -49 22 -2 56 -7
75 -10 221 -31 690 -26 907 9 21 4 52 8 68 10 188 24 500 111 749 209 135 53
420 193 463 227 14 11 30 20 35 20 5 0 14 5 21 10 7 6 64 45 127 86 242 160
496 382 672 588 34 39 64 73 68 76 4 3 44 55 90 115 152 200 284 417 388 638
23 49 42 91 42 93 0 2 11 27 24 56 57 127 151 421 182 573 17 81 54 301 59
350 4 33 9 71 11 85 9 46 11 524 4 605 -12 128 -21 202 -25 227 -3 13 -8 43
-11 68 -3 25 -9 61 -14 80 -5 19 -12 51 -15 70 -11 63 -64 269 -79 305 -8 19
-13 35 -11 35 12 0 -112 314 -180 455 -258 533 -647 995 -1125 1335 -195 139
-434 276 -620 355 -36 15 -83 35 -105 45 -119 52 -416 142 -580 175 -44 9 -89
19 -100 21 -11 2 -38 6 -60 9 -22 3 -51 7 -65 10 -13 2 -52 7 -86 11 -33 3
-74 8 -90 10 -32 5 -540 14 -546 10z m502 -709 c60 -7 142 -19 159 -22 9 -1
36 -6 61 -10 76 -12 250 -55 350 -87 506 -162 938 -452 1302 -876 33 -37 153
-201 190 -257 74 -114 106 -171 173 -309 99 -204 192 -465 219 -616 2 -14 11
-63 20 -110 9 -46 19 -105 22 -130 2 -25 9 -76 13 -115 14 -113 6 -495 -13
-625 -37 -254 -74 -393 -189 -705 -22 -61 -129 -268 -188 -367 -284 -470 -679
-831 -1178 -1077 -232 -114 -554 -215 -788 -247 -26 -3 -57 -8 -68 -10 -93
-19 -503 -26 -640 -11 -271 29 -505 86 -755 184 -696 273 -1263 830 -1555
1528 -49 116 -125 352 -144 445 -11 54 -17 82 -25 119 -3 11 -7 41 -11 68 -4
26 -9 59 -11 73 -26 153 -26 587 0 740 3 14 7 47 11 74 3 27 8 52 10 55 1 3 6
22 9 41 12 75 18 98 42 190 89 335 254 670 468 955 304 404 730 729 1198 916
246 98 529 166 763 184 50 4 92 9 94 11 4 4 417 -4 461 -9z"/>
</g>
</svg>
