<svg xmlns="http://www.w3.org/2000/svg" xmlns:fi="http://pattern.flaticon.com/" xmlns:xlink="http://www.w3.org/1999/xlink" viewBox="0 0 350 157.5" fill='rgba(255, 255, 255, 0.4)'><defs/><rect width="100%" height="100%" fill="transparent"/><defs><g id="c"><path d="M167.29 272.133a6.972 6.972 0 01-4.532-1.672l-45.297-38.57a7 7 0 010-10.66l45.297-38.57a7 7 0 019.867.788c2.504 2.946 2.152 7.363-.793 9.867l-39.035 33.243 39.035 33.242a7 7 0 01-4.543 12.332zm0 0M256.71 272.133c-1.98 0-3.948-.836-5.331-2.465a7 7 0 01.789-9.867l39.035-33.242-39.035-33.243a7 7 0 019.074-10.656l45.297 38.57a7 7 0 010 10.66l-45.297 38.57a6.972 6.972 0 01-4.531 1.673zm0 0M195.965 301.063a7.002 7.002 0 01-6.86-8.445l28.23-134.036a7 7 0 0113.7 2.887l-28.23 134.035a7.001 7.001 0 01-6.84 5.559zm0 0" transform="matrix(.09386 -.01173 .01173 .09386 216.908 110.4)"/><path d="M377 374.086H47c-25.914 0-47-21.082-47-47V47C0 21.086 21.086 0 47 0h330c25.914 0 47 21.086 47 47v280.086c0 25.918-21.086 47-47 47zM47 14c-18.195 0-33 14.805-33 33v280.086c0 18.195 14.805 33 33 33h330c18.195 0 33-14.805 33-33V47c0-18.195-14.805-33-33-33zm0 0" transform="matrix(.09386 -.01173 .01173 .09386 216.908 110.4)"/><path d="M417 112.09H7a7.001 7.001 0 010-14h410a7.001 7.001 0 010 14zm0 0M119.602 78.594c-12.211 0-22.153-9.942-22.153-22.153 0-12.214 9.942-22.152 22.153-22.152 12.214 0 22.152 9.938 22.152 22.152 0 12.211-9.938 22.153-22.152 22.153zm0-30.305c-4.493 0-8.153 3.656-8.153 8.152s3.66 8.153 8.153 8.153c4.496 0 8.152-3.656 8.152-8.153s-3.656-8.152-8.152-8.152zm0 0M51.54 78.379c-12.216 0-22.153-9.938-22.153-22.152 0-12.215 9.937-22.153 22.152-22.153 12.215 0 22.152 9.938 22.152 22.153 0 12.214-9.937 22.152-22.152 22.152zm0-30.305c-4.493 0-8.153 3.66-8.153 8.153 0 4.496 3.66 8.152 8.152 8.152 4.496 0 8.152-3.656 8.152-8.152 0-4.493-3.656-8.153-8.152-8.153zm0 0M187.664 78.805c-12.21 0-22.148-9.938-22.148-22.153 0-12.21 9.937-22.148 22.148-22.148 12.215 0 22.152 9.937 22.152 22.148 0 12.215-9.937 22.153-22.152 22.153zm0-30.305c-4.492 0-8.148 3.656-8.148 8.152s3.656 8.153 8.148 8.153c4.496 0 8.152-3.657 8.152-8.153s-3.656-8.152-8.152-8.152zm0 0" transform="matrix(.09386 -.01173 .01173 .09386 216.908 110.4)"/></g><g id="e"><path d="M26 0C11.664 0 0 11.663 0 26s11.664 26 26 26 26-11.663 26-26S40.336 0 26 0zm0 50C12.767 50 2 39.233 2 26S12.767 2 26 2s24 10.767 24 24-10.767 24-24 24z" transform="rotate(-14.036 579.809 -447.26) scale(.6728)"/><path d="M38.252 15.336l-15.369 17.29-9.259-7.407a1 1 0 00-1.249 1.562l10 8a.999.999 0 001.373-.117l16-18a1 1 0 10-1.496-1.328z" transform="rotate(-14.036 579.809 -447.26) scale(.6728)"/></g><g id="g"><path d="M454.613 0H57.387C25.707 0 0 25.707 0 57.387v397.227C0 486.293 25.707 512 57.387 512h397.227c31.68 0 57.387-25.707 57.387-57.387V57.387C512 25.707 486.293 0 454.613 0zm36.054 454.613c0 19.947-16.107 36.053-36.053 36.053H57.387c-19.947 0-36.053-16.107-36.053-36.053V57.387c0-19.947 16.107-36.053 36.053-36.053h397.227c19.947 0 36.053 16.107 36.053 36.053v397.226z" transform="matrix(.0605 .00896 -.00896 .0605 44.806 109.216)"/><path d="M216 149.333l-66.667 213.333h27.627l19.947-66.133h68.267l20.587 66.133h28.267L247.68 149.333H216zm-13.973 126.934l18.453-59.733c3.84-13.333 7.147-27.947 10.027-41.6h.96c2.88 13.333 6.187 27.627 10.347 41.92l18.773 59.413h-58.56zM356.587 150.72c-9.6 0-16.747 7.253-16.747 17.067 0 9.493 6.72 16.747 16.427 16.747h.32c10.24 0 16.747-7.253 16.747-16.747-.001-9.814-6.721-17.067-16.747-17.067zM343 209h26v153h-26z" transform="matrix(.0605 .00896 -.00896 .0605 44.806 109.216)"/></g><path id="a" d="M437.094 160.109c3.984-9.778 5.998-20.118 5.998-30.835 0-2.173-.086-4.369-.256-6.524a7.287 7.287 0 00-14.528 1.144c.139 1.777.211 3.587.211 5.38 0 10.904-2.534 21.332-7.532 30.994a7.284 7.284 0 003.635 10.059 76.555 76.555 0 0146.84 70.645c0 41.064-32.133 74.68-73.154 76.53a7.285 7.285 0 00-6.695 5.34c-5.43 19.669-27.246 33.945-51.872 33.945-11.734 0-22.926-3.123-32.145-8.889l24.074-37.99a16.91 16.91 0 002.643-8.553c.149-4.9-1.859-9.768-5.821-13.215-6.703-5.832-16.843-5.447-23.086.873l-18.065 18.289 5.89-43.63a16.94 16.94 0 00-3.652-12.931 16.945 16.945 0 00-11.937-6.166l-6.508-.44a16.837 16.837 0 00-17.761 13.914l-5.698 32.375-5.698 32.374-35.182-43.267a16.683 16.683 0 00-4.056-3.591l-.027-.019c-.163-.102-.334-.19-.5-.287a17.09 17.09 0 00-7.062-2.252c-.079-.007-.16-.006-.239-.012a17.53 17.53 0 00-1.1-.054 16.71 16.71 0 00-6.65 1.303l-6.799 2.858a16.87 16.87 0 00-9.502 10.309 16.868 16.868 0 001.567 13.934l28.798 48c-8.59 4.588-18.647 7.068-28.958 7.068-24.627 0-46.442-14.276-51.872-33.944a7.286 7.286 0 00-6.695-5.34c-41.021-1.85-73.154-35.466-73.154-76.531a76.553 76.553 0 0146.84-70.645 7.284 7.284 0 003.635-10.059c-4.998-9.662-7.532-20.09-7.532-30.994 0-37.265 30.318-67.583 67.583-67.583 10.387 0 20.359 2.3 29.637 6.836a7.285 7.285 0 0010.218-4.585c8.118-29.067 34.88-49.368 65.079-49.368 30.199 0 56.961 20.301 65.079 49.368a7.288 7.288 0 0010.218 4.585c9.278-4.536 19.25-6.836 29.637-6.836 24.911 0 47.73 13.639 59.551 35.596a7.286 7.286 0 1012.831-6.909c-14.367-26.684-42.102-43.26-72.382-43.26-9.839 0-19.373 1.699-28.444 5.061C320.293 21.083 289.933 0 256.001 0c-33.931 0-64.292 21.083-76.49 52.179-9.071-3.362-18.605-5.061-28.444-5.061-45.302 0-82.157 36.855-82.157 82.156 0 10.717 2.014 21.058 5.998 30.835-29.962 15.653-48.94 46.627-48.94 80.863 0 47.179 35.631 86.097 82.019 90.723 9.12 23.595 34.75 39.665 64.275 39.665 12.944 0 25.62-3.214 36.457-9.142l3.611 6.018c4.926 8.212 6.965 17.938 5.74 27.389-1.06 8.171-2.365 17.793-4.02 27.211a7.286 7.286 0 005.916 8.437 7.283 7.283 0 008.437-5.916c1.705-9.703 3.039-19.527 4.119-27.86 1.645-12.691-1.087-25.746-7.695-36.759l-39.907-66.517a2.276 2.276 0 01-.214-1.904 2.28 2.28 0 011.298-1.408l6.8-2.858a2.317 2.317 0 012.681.671l38.835 47.76c.103.126.212.244.319.365 1.443 1.64 3.238 2.819 5.211 3.466 2.096.688 4.386.778 6.651.205.025-.006.05-.01.076-.017h.002a11.906 11.906 0 005.604-3.259c.058-.061.121-.118.178-.179.052-.057.1-.118.151-.176a11.904 11.904 0 002.813-5.862l12.399-70.449a2.322 2.322 0 012.426-1.901l6.509.44a2.288 2.288 0 011.63.843c.236.289.615.903.498 1.766l-6.947 51.469a11.916 11.916 0 007.438 12.689 11.913 11.913 0 0012.873-2.711l23.622-23.916a2.292 2.292 0 011.481-.673c.024-.002.047-.008.071-.009l.036.002a2.306 2.306 0 011.565.561 2.295 2.295 0 01.434 2.973l-32.077 50.616c-6.737 10.632-9.848 23.417-8.758 35.999 3.052 35.249 8.341 74.994 31.324 108.703H202.105c8.224-12.196 14.614-26.071 19.392-42.043a7.286 7.286 0 00-4.893-9.069 7.285 7.285 0 00-9.069 4.893c-5.828 19.482-14.22 35.433-25.657 48.761a7.287 7.287 0 005.53 12.031h137.185a7.285 7.285 0 005.53-12.03c-28.059-32.706-33.853-75.221-37.082-112.503-.815-9.421 1.51-18.99 6.549-26.941l.204-.323c11.543 7.234 25.447 11.158 39.944 11.158 29.525 0 55.155-16.07 64.275-39.666 46.388-4.626 82.019-43.544 82.019-90.722.002-34.237-18.976-65.211-48.938-80.864z" transform="rotate(5.911 -972.442 3067.037) scale(.07699)"/></defs><g fi:class="KUsePattern"><pattern id="b" width="350" height="350" patternUnits="userSpaceOnUse"><use x="-350" y="-350" xlink:href="#a"/><use y="-350" xlink:href="#a"/><use x="350" y="-350" xlink:href="#a"/><use x="-350" xlink:href="#a"/><use xlink:href="#a"/><use x="350" xlink:href="#a"/><use x="-350" y="350" xlink:href="#a"/><use y="350" xlink:href="#a"/><use x="350" y="350" xlink:href="#a"/></pattern><rect width="100%" height="100%" fill="url(#b)"/></g><g fi:class="KUsePattern"><pattern id="d" width="350" height="350" patternUnits="userSpaceOnUse"><use x="-350" y="-350" xlink:href="#c"/><use y="-350" xlink:href="#c"/><use x="350" y="-350" xlink:href="#c"/><use x="-350" xlink:href="#c"/><use xlink:href="#c"/><use x="350" xlink:href="#c"/><use x="-350" y="350" xlink:href="#c"/><use y="350" xlink:href="#c"/><use x="350" y="350" xlink:href="#c"/></pattern><rect width="100%" height="100%" fill="url(#d)"/></g><g fi:class="KUsePattern"><pattern id="f" width="350" height="350" patternUnits="userSpaceOnUse"><use x="-350" y="-350" xlink:href="#e"/><use y="-350" xlink:href="#e"/><use x="350" y="-350" xlink:href="#e"/><use x="-350" xlink:href="#e"/><use xlink:href="#e"/><use x="350" xlink:href="#e"/><use x="-350" y="350" xlink:href="#e"/><use y="350" xlink:href="#e"/><use x="350" y="350" xlink:href="#e"/></pattern><rect width="100%" height="100%" fill="url(#f)"/></g><g fi:class="KUsePattern"><pattern id="h" width="350" height="350" patternUnits="userSpaceOnUse"><use x="-350" y="-350" xlink:href="#g"/><use y="-350" xlink:href="#g"/><use x="350" y="-350" xlink:href="#g"/><use x="-350" xlink:href="#g"/><use xlink:href="#g"/><use x="350" xlink:href="#g"/><use x="-350" y="350" xlink:href="#g"/><use y="350" xlink:href="#g"/><use x="350" y="350" xlink:href="#g"/></pattern><rect width="100%" height="100%" fill="url(#h)"/></g></svg>
