<svg xmlns="http://www.w3.org/2000/svg" viewBox="0 0 620 122" fill='#304ffe'>
	<path d="M73.67 27.11L73.67 121.03L57.55 121.03L57.55 87.62C52 93.94 44.26 96.9 35.49 96.9C15.36 96.9 0.66 82.97 0.66 61.56C0.66 40.27 15.36 26.34 35.49 26.34C44.9 26.34 52.9 29.57 58.32 36.14L58.32 27.11L73.67 27.11ZM57.8 61.56C57.8 48.4 49.03 40.01 37.29 40.01C25.68 40.01 16.91 48.4 16.91 61.56C16.91 74.72 25.68 83.1 37.29 83.1C49.03 83.1 57.8 74.72 57.8 61.56ZM89.15 61.56C89.15 40.92 104.63 26.34 125.79 26.34C147.2 26.34 162.55 40.92 162.55 61.56C162.55 82.2 147.2 96.9 125.79 96.9C104.63 96.9 89.15 82.2 89.15 61.56ZM146.3 61.56C146.3 48.4 137.53 40.01 125.79 40.01C114.18 40.01 105.41 48.4 105.41 61.56C105.41 74.72 114.18 83.1 125.79 83.1C137.53 83.1 146.3 74.72 146.3 61.56ZM172.36 61.56C172.36 40.92 187.84 26.34 208.99 26.34C230.41 26.34 245.76 40.92 245.76 61.56C245.76 82.2 230.41 96.9 208.99 96.9C187.84 96.9 172.36 82.2 172.36 61.56ZM229.5 61.56C229.5 48.4 220.73 40.01 208.99 40.01C197.38 40.01 188.61 48.4 188.61 61.56C188.61 74.72 197.38 83.1 208.99 83.1C220.73 83.1 229.5 74.72 229.5 61.56ZM261.24 0.28L277.36 0.28L277.36 96L261.24 96L261.24 0.28ZM371.66 61.56C371.66 82.97 356.83 96.9 336.7 96.9C327.93 96.9 320.19 93.94 314.64 87.62L314.64 121.03L298.52 121.03L298.52 27.11L313.87 27.11L313.87 36.14C319.29 29.57 327.29 26.34 336.7 26.34C356.83 26.34 371.66 40.27 371.66 61.56ZM355.28 61.56C355.28 48.4 346.51 40.01 334.9 40.01C323.29 40.01 314.39 48.4 314.39 61.56C314.39 74.72 323.29 83.1 334.9 83.1C346.51 83.1 355.28 74.72 355.28 61.56ZM443.77 55.62L443.77 96L428.55 96L428.55 87.62C424.68 93.55 417.2 96.9 406.88 96.9C391.14 96.9 381.21 88.26 381.21 76.26C381.21 64.78 388.95 55.75 409.85 55.75L427.65 55.75L427.65 54.72C427.65 45.3 421.97 39.76 410.49 39.76C402.75 39.76 394.75 42.34 389.59 46.59L383.27 34.85C390.63 29.18 401.33 26.34 412.43 26.34C432.29 26.34 443.77 35.76 443.77 55.62ZM427.65 74.46L427.65 66.46L411.01 66.46C400.04 66.46 397.08 70.59 397.08 75.62C397.08 81.42 401.98 85.16 410.23 85.16C418.1 85.16 424.94 81.55 427.65 74.46ZM533.43 27.11L533.43 85.55C533.43 110.58 520.4 121.93 496.28 121.93C483.38 121.93 470.61 118.58 462.74 112.13L469.96 100C476.02 105.03 485.83 108.26 495.37 108.26C510.6 108.26 517.3 101.29 517.3 87.36L517.3 83.74C511.63 89.94 503.5 92.9 494.21 92.9C474.48 92.9 459.38 79.49 459.38 59.49C459.38 39.5 474.48 26.34 494.21 26.34C503.89 26.34 512.4 29.44 518.08 36.27L518.08 27.11L533.43 27.11ZM517.56 59.49C517.56 47.88 508.79 40.01 496.66 40.01C484.41 40.01 475.64 47.88 475.64 59.49C475.64 71.23 484.41 79.23 496.66 79.23C508.79 79.23 517.56 71.23 517.56 59.49ZM619.08 66.72L565.03 66.72C566.97 76.78 575.35 83.23 587.35 83.23C595.09 83.23 601.15 80.78 606.05 75.75L614.7 85.68C608.51 93.03 598.83 96.9 586.96 96.9C563.87 96.9 548.91 82.07 548.91 61.56C548.91 41.05 564 26.34 584.51 26.34C604.64 26.34 619.34 40.4 619.34 61.94C619.34 63.23 619.21 65.17 619.08 66.72ZM564.9 56.01L603.99 56.01C602.7 46.08 595.09 39.24 584.51 39.24C574.06 39.24 566.45 45.95 564.9 56.01Z" />
</svg>