<svg xmlns="http://www.w3.org/2000/svg" viewBox="0 0 620 520" fill='#304ffe'>
	<path d="M73.67 425.11L73.67 519.03L57.55 519.03L57.55 485.62C52 491.94 44.26 494.9 35.49 494.9C15.36 494.9 0.66 480.97 0.66 459.56C0.66 438.27 15.36 424.34 35.49 424.34C44.9 424.34 52.9 427.57 58.32 434.14L58.32 425.11L73.67 425.11ZM57.8 459.56C57.8 446.4 49.03 438.01 37.29 438.01C25.68 438.01 16.91 446.4 16.91 459.56C16.91 472.72 25.68 481.1 37.29 481.1C49.03 481.1 57.8 472.72 57.8 459.56ZM89.15 459.56C89.15 438.92 104.63 424.34 125.79 424.34C147.2 424.34 162.55 438.92 162.55 459.56C162.55 480.2 147.2 494.9 125.79 494.9C104.63 494.9 89.15 480.2 89.15 459.56ZM146.3 459.56C146.3 446.4 137.53 438.01 125.79 438.01C114.18 438.01 105.41 446.4 105.41 459.56C105.41 472.72 114.18 481.1 125.79 481.1C137.53 481.1 146.3 472.72 146.3 459.56ZM172.36 459.56C172.36 438.92 187.84 424.34 208.99 424.34C230.41 424.34 245.76 438.92 245.76 459.56C245.76 480.2 230.41 494.9 208.99 494.9C187.84 494.9 172.36 480.2 172.36 459.56ZM229.5 459.56C229.5 446.4 220.73 438.01 208.99 438.01C197.38 438.01 188.61 446.4 188.61 459.56C188.61 472.72 197.38 481.1 208.99 481.1C220.73 481.1 229.5 472.72 229.5 459.56ZM261.24 398.28L277.36 398.28L277.36 494L261.24 494L261.24 398.28ZM371.66 459.56C371.66 480.97 356.83 494.9 336.7 494.9C327.93 494.9 320.19 491.94 314.64 485.62L314.64 519.03L298.52 519.03L298.52 425.11L313.87 425.11L313.87 434.14C319.29 427.57 327.29 424.34 336.7 424.34C356.83 424.34 371.66 438.27 371.66 459.56ZM355.28 459.56C355.28 446.4 346.51 438.01 334.9 438.01C323.29 438.01 314.39 446.4 314.39 459.56C314.39 472.72 323.29 481.1 334.9 481.1C346.51 481.1 355.28 472.72 355.28 459.56ZM443.77 453.62L443.77 494L428.55 494L428.55 485.62C424.68 491.55 417.2 494.9 406.88 494.9C391.14 494.9 381.21 486.26 381.21 474.26C381.21 462.78 388.95 453.75 409.85 453.75L427.65 453.75L427.65 452.72C427.65 443.3 421.97 437.76 410.49 437.76C402.75 437.76 394.75 440.34 389.59 444.59L383.27 432.85C390.63 427.18 401.33 424.34 412.43 424.34C432.29 424.34 443.77 433.76 443.77 453.62ZM427.65 472.46L427.65 464.46L411.01 464.46C400.04 464.46 397.08 468.59 397.08 473.62C397.08 479.42 401.98 483.16 410.23 483.16C418.1 483.16 424.94 479.55 427.65 472.46ZM533.43 425.11L533.43 483.55C533.43 508.58 520.4 519.93 496.28 519.93C483.38 519.93 470.61 516.58 462.74 510.13L469.96 498C476.02 503.03 485.83 506.26 495.37 506.26C510.6 506.26 517.3 499.29 517.3 485.36L517.3 481.74C511.63 487.94 503.5 490.9 494.21 490.9C474.48 490.9 459.38 477.49 459.38 457.49C459.38 437.5 474.48 424.34 494.21 424.34C503.89 424.34 512.4 427.44 518.08 434.27L518.08 425.11L533.43 425.11ZM517.56 457.49C517.56 445.88 508.79 438.01 496.66 438.01C484.41 438.01 475.64 445.88 475.64 457.49C475.64 469.23 484.41 477.23 496.66 477.23C508.79 477.23 517.56 469.23 517.56 457.49ZM619.08 464.72L565.03 464.72C566.97 474.78 575.35 481.23 587.35 481.23C595.09 481.23 601.15 478.78 606.05 473.75L614.7 483.68C608.51 491.03 598.83 494.9 586.96 494.9C563.87 494.9 548.91 480.07 548.91 459.56C548.91 439.05 564 424.34 584.51 424.34C604.64 424.34 619.34 438.4 619.34 459.94C619.34 461.23 619.21 463.17 619.08 464.72ZM564.9 454.01L603.99 454.01C602.7 444.08 595.09 437.24 584.51 437.24C574.06 437.24 566.45 443.95 564.9 454.01ZM153 157.5C153 70.51 223.52 0 310.5 0C397.49 0 468 70.51 468 157.5C468 244.49 397.49 315 310.5 315C223.52 315 153 244.49 153 157.5ZM309.94 283.5C379.53 283.5 435.94 227.09 435.94 157.5C435.94 87.91 379.53 31.5 309.94 31.5C240.36 31.5 183.94 87.91 183.94 157.5C183.94 227.09 240.36 283.5 309.94 283.5Z" />
</svg>